<?xml version="1.0" encoding="UTF-8"?>
<svg width="495px" height="506px" viewBox="0 0 495 506" version="1.1" xmlns="http://www.w3.org/2000/svg" xmlns:xlink="http://www.w3.org/1999/xlink">
    <!-- Generator: Sketch 47.1 (45422) - http://www.bohemiancoding.com/sketch -->
    <title>angellist</title>
    <desc>Created with Sketch.</desc>
    <defs></defs>
    <g id="Page-1" stroke="none" stroke-width="1" fill="none" fill-rule="evenodd">
        <g id="Desktop" transform="translate(-157.000000, -128.000000)" fill-rule="nonzero" fill="#FFFFFF">
            <g id="angellist" transform="translate(148.000000, 128.000000)">
                <path d="M237.20458,210.136064 C238.816878,209.463296 241.016471,209.1264 243.801349,209.1264 C244.680784,209.1264 246.439655,209.204224 249.077961,209.350656 C251.716267,209.50016 256.038149,209.876992 262.050635,210.47296 L238.303875,140.49792 C232.146824,122.70592 227.383216,111.084544 224.012047,105.623552 C220.636863,100.165632 216.975561,97.437696 213.017098,97.437696 C209.939075,97.437696 207.443325,98.6368 205.540894,101.025792 C203.635451,103.417856 202.682729,106.632192 202.682729,110.669824 C202.682729,117.549056 205.244737,129.509376 210.377788,146.553856 C215.507827,163.59936 223.20389,185.952256 233.464973,213.61152 C234.346416,211.966976 235.589271,210.808832 237.20458,210.136064 Z" id="Shape"></path>
                <path d="M263.590651,300.406784 C267.108392,295.921664 270.809851,291.849216 274.695027,288.18432 C278.576188,284.520448 282.644078,281.268224 286.897694,278.426624 C280.595075,278.127616 274.618729,277.456896 268.977694,276.409344 C263.334651,275.365888 257.946604,273.866752 252.816565,271.924224 C255.158714,276.711424 257.247875,281.49248 259.084047,286.276608 C260.9152,291.064832 262.415059,295.774208 263.590651,300.406784 Z" id="Shape"></path>
                <path d="M343.186573,242.992128 C337.174086,237.912064 325.486431,233.348096 308.11658,229.311488 C290.746729,225.27488 272.605867,223.255552 253.696,223.255552 C248.419388,223.255552 244.681788,224.152576 242.4832,225.946624 C240.283608,227.740672 239.184314,230.806528 239.184314,235.14112 C239.184314,245.311488 244.755075,252.672 255.895592,257.231872 C267.033098,261.79584 285.063529,264.073216 309.985882,264.073216 L319.001098,264.073216 C321.053114,264.073216 322.702557,264.858624 323.948424,266.428416 C325.191278,267.998208 326.037584,270.353408 326.477302,273.492992 C323.981553,275.885056 318.854525,278.61504 311.085176,281.677824 C303.31382,284.742656 297.376627,287.770624 293.275608,290.760704 C284.479247,297.342976 277.407624,305.153024 272.056722,314.198016 C266.702808,323.248128 264.031373,331.804672 264.031373,339.877888 C264.031373,344.812544 265.1648,350.75584 267.439686,357.707776 C269.712565,364.660736 270.848,368.95744 270.848,370.603008 L270.848,372.1728 L270.408282,374.191104 C263.955075,373.742592 258.864188,369.896448 255.126588,362.641408 C251.387984,355.390464 249.519686,345.708544 249.519686,333.597696 L249.519686,331.58144 C248.344094,332.627968 247.210667,333.376512 246.111373,333.825024 C245.012078,334.272512 243.802353,334.497792 242.4832,334.497792 C241.163043,334.497792 239.917176,334.385152 238.744596,334.159872 C237.569004,333.937664 236.249851,333.599744 234.787137,333.151232 C235.226855,334.799872 235.557145,336.403456 235.777004,337.973248 C235.996863,339.54304 236.10629,340.77696 236.10629,341.675008 C236.10629,347.206656 233.980988,351.958016 229.730384,355.914752 C225.475765,359.877632 220.419012,361.858048 214.559122,361.858048 C205.324047,361.858048 195.9424,357.260288 186.41418,348.064768 C176.882949,338.870272 172.122353,329.865216 172.122353,321.03936 C172.122353,319.39584 172.305067,317.93664 172.671498,316.66688 C173.034918,315.399168 173.661365,314.31168 174.5408,313.414656 C176.592816,315.959296 179.45098,319.694848 183.116298,324.629504 C192.79109,338.234368 201.730008,345.0368 209.942086,345.0368 C212.723953,345.0368 215.218698,344.1408 217.417286,342.346752 C219.615875,340.55168 220.715169,338.68288 220.715169,336.739328 C220.715169,334.496768 219.249443,330.76224 216.317992,325.525504 C213.382525,320.29184 209.354792,314.389504 204.224753,307.808256 C198.360847,300.181504 193.483796,294.611968 189.602635,291.099648 C185.718463,287.588352 182.601286,285.830144 180.258133,285.830144 C175.124078,285.830144 170.397616,288.632832 166.075733,294.240256 C161.750839,299.846656 159.589396,306.46272 159.589396,314.087424 C159.589396,320.222208 161.092267,327.062528 164.097004,334.610432 C167.098729,342.160384 171.462776,349.748224 177.18011,357.372928 C185.828894,369.185792 196.562824,378.2656 209.392941,384.620544 C222.218039,390.980608 236.400439,394.151936 251.939137,394.151936 C280.522792,394.151936 304.454275,383.276032 323.729569,361.5232 C343.002855,339.76832 352.643514,312.51968 352.643514,279.774208 C352.643514,269.760512 351.907639,261.797888 350.443922,255.889408 C348.977192,249.981952 346.558745,245.6832 343.186573,242.992128 Z" id="Shape"></path>
                <path d="M208.620925,290.761728 C215.071122,299.58656 221.153882,306.461696 226.871216,311.396352 C232.588549,316.32896 237.129286,318.7968 240.504471,318.7968 C242.996204,318.7968 245.265067,317.641728 247.320094,315.321344 C249.37211,313.003008 250.398118,310.499328 250.398118,307.807232 C250.398118,304.968704 248.382243,298.353664 244.351498,287.958016 C240.316737,277.56544 235.299137,267.36128 229.289663,257.344512 C224.892486,249.868288 220.568596,244.225024 216.316988,240.410624 C212.062369,236.599296 208.034635,234.692608 204.223749,234.692608 C201.145725,234.692608 197.737412,236.67712 193.998808,240.635904 C190.261208,244.598784 188.391906,248.298496 188.391906,251.738112 C188.391906,255.325184 190.225067,260.708352 193.888376,267.885568 C197.550682,275.064832 202.463875,282.689536 208.620925,290.761728 Z" id="Shape"></path>
                <path d="M256.559184,0.710656 C120.028863,0.710656 9.34349804,113.590272 9.34349804,252.850176 C9.34349804,392.111104 120.028863,505.010176 256.559184,505.010176 C393.078463,505.010176 503.764831,392.111104 503.764831,252.850176 C503.765835,113.590272 393.078463,0.710656 256.559184,0.710656 Z M334.721506,373.184512 C312.512753,397.179904 284.112816,409.177088 249.518682,409.177088 C235.886431,409.177088 222.656753,406.672384 209.830651,401.665024 C197.000533,396.654592 185.973459,389.664768 176.739388,380.694528 C166.185161,370.829312 158.269239,360.400896 152.992627,349.412352 C147.715012,338.422784 145.076706,327.17312 145.076706,315.657216 C145.076706,302.799872 147.788298,292.859904 153.212486,285.830144 C158.632659,278.802432 167.208157,274.020352 178.937976,271.474688 C176.740392,266.242048 175.124078,261.830656 174.101082,258.24256 C173.075075,254.655488 172.562071,251.88864 172.562071,249.945088 C172.562071,243.217408 176.043671,236.342272 183.005867,229.311488 C189.965051,222.283776 196.52869,218.770432 202.685741,218.770432 C205.324047,218.770432 208.105914,219.256832 211.040376,220.228608 C213.972831,221.203456 217.340988,222.808064 221.154886,225.050624 C209.864784,192.45568 201.658729,167.299072 196.52869,149.5808 C191.394635,131.863552 188.833631,119.640064 188.833631,112.912384 C188.833631,103.642112 191.17578,96.2816 195.870118,90.821632 C200.560439,85.363712 206.937349,82.635776 214.998839,82.635776 C228.775655,82.635776 246.221804,114.034688 267.330259,176.832512 C270.991561,187.597824 273.780455,195.895296 275.685898,201.728 C277.298196,197.095424 279.568063,190.514176 282.502525,181.991424 C303.61098,119.791616 321.783969,88.692736 337.032533,88.692736 C344.508737,88.692736 350.479059,91.272192 354.952533,96.43008 C359.422996,101.588992 361.658729,108.507136 361.658729,117.175296 C361.658729,123.757568 359.203137,135.790592 354.292957,153.283584 C349.379765,170.7776 341.942714,193.65376 331.97578,221.912064 C345.16731,224.456704 354.476675,230.135808 359.899859,238.956544 C365.321035,247.781376 368.035639,261.686272 368.035639,280.67328 C368.032627,318.349312 356.929255,349.187072 334.721506,373.184512 Z" id="Shape"></path>
                <path d="M339.118682,150.703104 C344.615153,132.985856 347.36389,122.107904 347.36389,118.071296 C347.36389,113.734656 346.448314,110.370816 344.616157,107.978752 C342.779984,105.588736 340.25211,104.390656 337.030525,104.390656 C332.92549,104.390656 328.748173,107.866112 324.497569,114.819072 C320.242949,121.772032 315.555639,132.95104 310.4256,148.348928 L288.43771,213.165056 L316.142933,218.099712 C325.959278,190.884864 333.621208,168.421376 339.118682,150.703104 Z" id="Shape"></path>
            </g>
        </g>
    </g>
</svg>